<?xml version="1.0" encoding="UTF-8" standalone="no"?>
<svg
   xmlns:dc="http://purl.org/dc/elements/1.1/"
   xmlns:cc="http://creativecommons.org/ns#"
   xmlns:rdf="http://www.w3.org/1999/02/22-rdf-syntax-ns#"
   xmlns:svg="http://www.w3.org/2000/svg"
   xmlns="http://www.w3.org/2000/svg"
   viewBox="0 0 30 30"
   height="30"
   width="30"
   xml:space="preserve"
   version="1.1"
   id="svg2"><metadata
     id="metadata8"><rdf:RDF><cc:Work
         rdf:about=""><dc:format>image/svg+xml</dc:format><dc:type
           rdf:resource="http://purl.org/dc/dcmitype/StillImage" /></cc:Work></rdf:RDF></metadata><defs
     id="defs6"><clipPath
       id="clipPath16"
       clipPathUnits="userSpaceOnUse"><path
         id="path18"
         d="M 0,24 24,24 24,0 0,0 0,24 Z" /></clipPath></defs><g
     transform="matrix(1.25,0,0,-1.25,0,30)"
     id="g10"><g
       id="g12"><g
         clip-path="url(#clipPath16)"
         id="g14"><g
           transform="translate(11.5,23.5)"
           id="g20"><path
             id="path22"
             style="fill:none;stroke:#000000;stroke-width:1;stroke-linecap:round;stroke-linejoin:round;stroke-miterlimit:10;stroke-dasharray:none;stroke-opacity:1"
             d="m 0,0 c 2.209,0 4,-0.895 4,-2 0,-1.105 -1.791,-2 -4,-2 -2.209,0 -4,0.895 -4,2 0,1.105 1.791,2 4,2 z" /></g><g
           transform="translate(7.5,18.5)"
           id="g24"><path
             id="path26"
             style="fill:none;stroke:#000000;stroke-width:1;stroke-linecap:round;stroke-linejoin:round;stroke-miterlimit:10;stroke-dasharray:none;stroke-opacity:1"
             d="m 0,0 c 0,-1.104 1.791,-2 4,-2 2.209,0 4,0.896 4,2" /></g><g
           transform="translate(15.5,21.5)"
           id="g28"><path
             id="path30"
             style="fill:none;stroke:#000000;stroke-width:1;stroke-linecap:round;stroke-linejoin:round;stroke-miterlimit:10;stroke-dasharray:none;stroke-opacity:1"
             d="m 0,0 0,-6 c 0,-1.104 -1.791,-2 -4,-2 -2.209,0 -4,0.896 -4,2 l 0,6" /></g><g
           transform="translate(3,0.5)"
           id="g32"><path
             id="path34"
             style="fill:none;stroke:#000000;stroke-width:1;stroke-linecap:round;stroke-linejoin:round;stroke-miterlimit:10;stroke-dasharray:none;stroke-opacity:1"
             d="M 0,0 5,0" /></g><g
           transform="translate(5.5,2.5)"
           id="g36"><path
             id="path38"
             style="fill:none;stroke:#000000;stroke-width:1;stroke-linecap:round;stroke-linejoin:round;stroke-miterlimit:10;stroke-dasharray:none;stroke-opacity:1"
             d="M 0,0 0,-2" /></g><g
           transform="translate(0.5,4.5)"
           id="g40"><path
             id="path42"
             style="fill:none;stroke:#000000;stroke-width:1;stroke-linecap:butt;stroke-linejoin:round;stroke-miterlimit:10;stroke-dasharray:none;stroke-opacity:1"
             d="M 0,0 10,0" /></g><g
           transform="translate(9,9.5)"
           id="g44"><path
             id="path46"
             style="fill:none;stroke:#000000;stroke-width:1;stroke-linecap:round;stroke-linejoin:round;stroke-miterlimit:10;stroke-dasharray:none;stroke-opacity:1"
             d="m 0,0 c 0.828,0 1.5,-0.673 1.5,-1.5 l 0,-3.912 C 1.5,-6.29 0.829,-7 0,-7 l -7,0 c -0.828,0 -1.5,0.71 -1.5,1.588 l 0,3.912 c 0,0.827 0.672,1.5 1.5,1.5 l 7,0 z" /></g><g
           transform="translate(15,0.5)"
           id="g48"><path
             id="path50"
             style="fill:none;stroke:#000000;stroke-width:1;stroke-linecap:round;stroke-linejoin:round;stroke-miterlimit:10;stroke-dasharray:none;stroke-opacity:1"
             d="M 0,0 5,0" /></g><g
           transform="translate(17.5,2.5)"
           id="g52"><path
             id="path54"
             style="fill:none;stroke:#000000;stroke-width:1;stroke-linecap:round;stroke-linejoin:round;stroke-miterlimit:10;stroke-dasharray:none;stroke-opacity:1"
             d="M 0,0 0,-2" /></g><g
           transform="translate(12.5,4.5)"
           id="g56"><path
             id="path58"
             style="fill:none;stroke:#000000;stroke-width:1;stroke-linecap:butt;stroke-linejoin:round;stroke-miterlimit:10;stroke-dasharray:none;stroke-opacity:1"
             d="M 0,0 10,0" /></g><g
           transform="translate(21,9.5)"
           id="g60"><path
             id="path62"
             style="fill:none;stroke:#000000;stroke-width:1;stroke-linecap:round;stroke-linejoin:round;stroke-miterlimit:10;stroke-dasharray:none;stroke-opacity:1"
             d="m 0,0 c 0.828,0 1.5,-0.673 1.5,-1.5 l 0,-3.912 C 1.5,-6.29 0.829,-7 0,-7 l -7,0 c -0.828,0 -1.5,0.71 -1.5,1.588 l 0,3.912 c 0,0.827 0.672,1.5 1.5,1.5 l 7,0 z" /></g><g
           transform="translate(17.5,17.5)"
           id="g64"><path
             id="path66"
             style="fill:none;stroke:#000000;stroke-width:1;stroke-linecap:round;stroke-linejoin:round;stroke-miterlimit:10;stroke-dasharray:none;stroke-opacity:1"
             d="M 0,0 3,0 3,-5" /></g><g
           transform="translate(5.5,17.5)"
           id="g68"><path
             id="path70"
             style="fill:none;stroke:#000000;stroke-width:1;stroke-linecap:round;stroke-linejoin:round;stroke-miterlimit:10;stroke-dasharray:none;stroke-opacity:1"
             d="m 0,0 -3,0 0,-5" /></g></g></g></g></svg>