<?xml version="1.0" encoding="UTF-8" standalone="no"?>
<svg
   xmlns:dc="http://purl.org/dc/elements/1.1/"
   xmlns:cc="http://creativecommons.org/ns#"
   xmlns:rdf="http://www.w3.org/1999/02/22-rdf-syntax-ns#"
   xmlns:svg="http://www.w3.org/2000/svg"
   xmlns="http://www.w3.org/2000/svg"
   viewBox="0 0 30 30"
   height="30"
   width="30"
   xml:space="preserve"
   version="1.1"
   id="svg2"><metadata
     id="metadata8"><rdf:RDF><cc:Work
         rdf:about=""><dc:format>image/svg+xml</dc:format><dc:type
           rdf:resource="http://purl.org/dc/dcmitype/StillImage" /></cc:Work></rdf:RDF></metadata><defs
     id="defs6"><clipPath
       id="clipPath16"
       clipPathUnits="userSpaceOnUse"><path
         id="path18"
         d="M 0,24 24,24 24,0 0,0 0,24 Z" /></clipPath></defs><g
     transform="matrix(1.25,0,0,-1.25,0,30)"
     id="g10"><g
       id="g12"><g
         clip-path="url(#clipPath16)"
         id="g14"><g
           transform="translate(19,0.5)"
           id="g20"><path
             id="path22"
             style="fill:none;stroke:#000000;stroke-width:1;stroke-linecap:round;stroke-linejoin:round;stroke-miterlimit:10;stroke-dasharray:none;stroke-opacity:1"
             d="m 0,0 c 1.671,1.214 4.499,3.779 4.499,5.697 0,1.555 -1.133,2.484 -2.228,2.484 -1.218,0 -1.671,-0.84 -2.272,-1.833 -0.602,0.993 -1.055,1.833 -2.272,1.833 -1.095,0 -2.228,-0.93 -2.228,-2.484 C -4.501,3.779 -1.673,1.214 0,0 Z" /></g><g
           transform="translate(13.941,10.221)"
           id="g24"><path
             id="path26"
             style="fill:none;stroke:#000000;stroke-width:1;stroke-linecap:round;stroke-linejoin:round;stroke-miterlimit:10;stroke-dasharray:none;stroke-opacity:1"
             d="m 0,0 -3.941,1.412 0,2.045" /></g><g
           transform="translate(6,13.677)"
           id="g28"><path
             id="path30"
             style="fill:none;stroke:#000000;stroke-width:1;stroke-linecap:round;stroke-linejoin:round;stroke-miterlimit:10;stroke-dasharray:none;stroke-opacity:1"
             d="M 0,0 0,-2.044 -3.941,-3.456 C -4.885,-3.794 -5.5,-4.689 -5.5,-5.689 l 0,-1.488 10.5,0" /></g><g
           transform="translate(11.947,17.764)"
           id="g32"><path
             id="path34"
             style="fill:none;stroke:#000000;stroke-width:1;stroke-linecap:round;stroke-linejoin:round;stroke-miterlimit:10;stroke-dasharray:none;stroke-opacity:1"
             d="m 0,0 c 0,-2.618 -1.768,-4.741 -3.947,-4.741 -2.181,0 -3.947,2.123 -3.947,4.741 0,2.615 1.766,4.736 3.947,4.736 C -1.767,4.736 0,2.615 0,0 Z" /></g><g
           transform="translate(11.916,18.189)"
           id="g36"><path
             id="path38"
             style="fill:none;stroke:#000000;stroke-width:1;stroke-linecap:round;stroke-linejoin:round;stroke-miterlimit:10;stroke-dasharray:none;stroke-opacity:1"
             d="m 0,0 c -0.132,-0.018 -0.241,-0.006 -0.374,-0.033 -1.345,-0.258 -2.208,0.229 -2.949,1.525 -0.444,-0.851 -1.831,-1.525 -2.972,-1.525 -0.562,0 -1.045,0.115 -1.528,0.369" /></g><g
           transform="translate(14.5,22.5)"
           id="g40"><path
             id="path42"
             style="fill:none;stroke:#000000;stroke-width:1;stroke-linecap:round;stroke-linejoin:round;stroke-miterlimit:10;stroke-dasharray:none;stroke-opacity:1"
             d="M 0,0 C 2.18,0 3.947,-2.121 3.947,-4.736 3.947,-7.354 2.179,-9.477 0,-9.477" /></g><g
           transform="translate(18.416,18.189)"
           id="g44"><path
             id="path46"
             style="fill:none;stroke:#000000;stroke-width:1;stroke-linecap:round;stroke-linejoin:round;stroke-miterlimit:10;stroke-dasharray:none;stroke-opacity:1"
             d="M 0,0 C -0.132,-0.018 -0.241,-0.006 -0.374,-0.033 -1.719,-0.291 -2.582,0.196 -3.323,1.492" /></g><g
           transform="translate(16.5,12)"
           id="g48"><path
             id="path50"
             style="fill:none;stroke:#000000;stroke-width:1;stroke-linecap:round;stroke-linejoin:round;stroke-miterlimit:10;stroke-dasharray:none;stroke-opacity:1"
             d="M 0,0 0,1.678" /></g></g></g></g></svg>