<?xml version="1.0" encoding="UTF-8" standalone="no"?>
<svg
   xmlns:dc="http://purl.org/dc/elements/1.1/"
   xmlns:cc="http://creativecommons.org/ns#"
   xmlns:rdf="http://www.w3.org/1999/02/22-rdf-syntax-ns#"
   xmlns:svg="http://www.w3.org/2000/svg"
   xmlns="http://www.w3.org/2000/svg"
   viewBox="0 0 30 30"
   height="30"
   width="30"
   xml:space="preserve"
   version="1.1"
   id="svg2"><metadata
     id="metadata8"><rdf:RDF><cc:Work
         rdf:about=""><dc:format>image/svg+xml</dc:format><dc:type
           rdf:resource="http://purl.org/dc/dcmitype/StillImage" /></cc:Work></rdf:RDF></metadata><defs
     id="defs6"><clipPath
       id="clipPath16"
       clipPathUnits="userSpaceOnUse"><path
         id="path18"
         d="M 0,24 24,24 24,0 0,0 0,24 Z" /></clipPath></defs><g
     transform="matrix(1.25,0,0,-1.25,0,30)"
     id="g10"><g
       id="g12"><g
         clip-path="url(#clipPath16)"
         id="g14"><g
           transform="translate(20,9)"
           id="g20"><path
             id="path22"
             style="fill:none;stroke:#000000;stroke-width:1;stroke-linecap:round;stroke-linejoin:round;stroke-miterlimit:10;stroke-dasharray:none;stroke-opacity:1"
             d="M 0,0 0,0 C 0.828,0 1.5,-0.672 1.5,-1.5 1.5,-2.329 0.828,-3 0,-3 l -1,0 c 0.828,0 1.5,-0.672 1.5,-1.5 0,-0.829 -0.672,-1 -1.5,-1 l -6.5,0 c -2.851,0 -3.5,0.5 -7,1 l 0,8.5 c 2.45,0 6.5,4.5 6.5,8.5 0,1.581 2.188,2.17 3,-0.719 C -4.5,10 -6,6.5 -6,6.5 l 8,0 C 2.828,6.5 3.5,5.828 3.5,5 3.5,4.171 2.828,3 2,3 L 1,3 C 1.828,3 2.5,2.328 2.5,1.5 2.5,0.671 1.828,0 1,0 L 0,0" /></g><path
           id="path24"
           style="fill:none;stroke:#000000;stroke-width:1;stroke-linecap:round;stroke-linejoin:round;stroke-miterlimit:10;stroke-dasharray:none;stroke-opacity:1"
           d="m 0.5,14.5 5,0 0,-12 -5,0 0,12 z" /><g
           transform="translate(3.5,5)"
           id="g26"><path
             id="path28"
             style="fill:#000000;fill-opacity:1;fill-rule:nonzero;stroke:none"
             d="M 0,0 C -0.276,0 -0.5,-0.224 -0.5,-0.5 -0.5,-0.776 -0.276,-1 0,-1 0.276,-1 0.5,-0.776 0.5,-0.5 0.5,-0.224 0.276,0 0,0" /></g></g></g></g></svg>